<svg id="visual" viewBox="0 0 900 600" width="900" height="600" xmlns="http://www.w3.org/2000/svg"
    xmlns:xlink="http://www.w3.org/1999/xlink" version="1.1">
    <rect x="0" y="0" width="900" height="600" fill="#3f3f3f"></rect>
    <g transform="translate(456.68391330810357 273.24321573041954)">
        <path
            d="M137.3 -171.7C161.9 -143 154.8 -84.5 161 -31.1C167.2 22.3 186.7 70.7 179.1 122C171.6 173.3 137.1 227.6 89.6 243.8C42.2 260 -18.2 238.1 -72.4 212.5C-126.6 186.9 -174.6 157.7 -189.1 116.8C-203.5 75.9 -184.5 23.4 -168.1 -22.7C-151.7 -68.7 -137.9 -108.3 -110.3 -136.4C-82.7 -164.6 -41.4 -181.3 7.5 -190.2C56.4 -199.2 112.7 -200.3 137.3 -171.7"
            fill="#000"></path>
    </g>
</svg>