<svg id="visual" viewBox="0 0 900 600" width="900" height="600" xmlns="http://www.w3.org/2000/svg"
    xmlns:xlink="http://www.w3.org/1999/xlink" version="1.1">
   
    <g transform="translate(480.0502493725304 302.3633498470498)">
        <path id="blob1"
            d="M135.2 -177.1C159.8 -140.4 153.8 -83.2 166.3 -27.1C178.7 29 209.7 84 196.2 118.9C182.7 153.7 124.7 168.5 69.2 187.6C13.7 206.7 -39.3 230.2 -85.8 220.1C-132.3 210 -172.2 166.2 -206.1 115.3C-239.9 64.3 -267.7 6.1 -257.5 -44.3C-247.3 -94.7 -199.2 -137.4 -149.9 -169.7C-100.7 -202 -50.4 -224 2.5 -226.9C55.3 -229.9 110.6 -213.8 135.2 -177.1"
            fill="#000"></path>
    </g>
    <g transform="translate(456.68391330810357 273.24321573041954)">
        <path id="blob2"
            d="M137.3 -171.7C161.9 -143 154.8 -84.5 161 -31.1C167.2 22.3 186.7 70.7 179.1 122C171.6 173.3 137.1 227.6 89.6 243.8C42.2 260 -18.2 238.1 -72.4 212.5C-126.6 186.9 -174.6 157.7 -189.1 116.8C-203.5 75.9 -184.5 23.4 -168.1 -22.7C-151.7 -68.7 -137.9 -108.3 -110.3 -136.4C-82.7 -164.6 -41.4 -181.3 7.5 -190.2C56.4 -199.2 112.7 -200.3 137.3 -171.7"
            fill="#000"></path>
    </g>
</svg>