<svg id="visual" viewBox="0 0 900 600" width="900" height="600" xmlns="http://www.w3.org/2000/svg" xmlns:xlink="http://www.w3.org/1999/xlink" version="1.1"><rect x="0" y="0" width="900" height="600" fill="#3f3f3f"></rect><path d="M0 402L21.5 399.8C43 397.7 86 393.3 128.8 393.8C171.7 394.3 214.3 399.7 257.2 408.2C300 416.7 343 428.3 385.8 423.7C428.7 419 471.3 398 514.2 397.3C557 396.7 600 416.3 642.8 414.8C685.7 413.3 728.3 390.7 771.2 377.2C814 363.7 857 359.3 878.5 357.2L900 355L900 601L878.5 601C857 601 814 601 771.2 601C728.3 601 685.7 601 642.8 601C600 601 557 601 514.2 601C471.3 601 428.7 601 385.8 601C343 601 300 601 257.2 601C214.3 601 171.7 601 128.8 601C86 601 43 601 21.5 601L0 601Z" fill="#3f3f3f"></path><path d="M0 462L21.5 459.7C43 457.3 86 452.7 128.8 449.3C171.7 446 214.3 444 257.2 448.8C300 453.7 343 465.3 385.8 463.8C428.7 462.3 471.3 447.7 514.2 434.8C557 422 600 411 642.8 412.5C685.7 414 728.3 428 771.2 429C814 430 857 418 878.5 412L900 406L900 601L878.5 601C857 601 814 601 771.2 601C728.3 601 685.7 601 642.8 601C600 601 557 601 514.2 601C471.3 601 428.7 601 385.8 601C343 601 300 601 257.2 601C214.3 601 171.7 601 128.8 601C86 601 43 601 21.5 601L0 601Z" fill="#303030"></path><path d="M0 511L21.5 510.7C43 510.3 86 509.7 128.8 505.5C171.7 501.3 214.3 493.7 257.2 485.7C300 477.7 343 469.3 385.8 471.2C428.7 473 471.3 485 514.2 483.5C557 482 600 467 642.8 458.2C685.7 449.3 728.3 446.7 771.2 455.3C814 464 857 484 878.5 494L900 504L900 601L878.5 601C857 601 814 601 771.2 601C728.3 601 685.7 601 642.8 601C600 601 557 601 514.2 601C471.3 601 428.7 601 385.8 601C343 601 300 601 257.2 601C214.3 601 171.7 601 128.8 601C86 601 43 601 21.5 601L0 601Z" fill="#222222"></path><path d="M0 538L21.5 533.2C43 528.3 86 518.7 128.8 515.3C171.7 512 214.3 515 257.2 515.3C300 515.7 343 513.3 385.8 513.2C428.7 513 471.3 515 514.2 519.3C557 523.7 600 530.3 642.8 528.7C685.7 527 728.3 517 771.2 516.8C814 516.7 857 526.3 878.5 531.2L900 536L900 601L878.5 601C857 601 814 601 771.2 601C728.3 601 685.7 601 642.8 601C600 601 557 601 514.2 601C471.3 601 428.7 601 385.8 601C343 601 300 601 257.2 601C214.3 601 171.7 601 128.8 601C86 601 43 601 21.5 601L0 601Z" fill="#151515"></path><path d="M0 525L21.5 528.2C43 531.3 86 537.7 128.8 545.2C171.7 552.7 214.3 561.3 257.2 560.7C300 560 343 550 385.8 549.3C428.7 548.7 471.3 557.3 514.2 560.5C557 563.7 600 561.3 642.8 561.3C685.7 561.3 728.3 563.7 771.2 561.3C814 559 857 552 878.5 548.5L900 545L900 601L878.5 601C857 601 814 601 771.2 601C728.3 601 685.7 601 642.8 601C600 601 557 601 514.2 601C471.3 601 428.7 601 385.8 601C343 601 300 601 257.2 601C214.3 601 171.7 601 128.8 601C86 601 43 601 21.5 601L0 601Z" fill="#000000"></path></svg>